/* XPM */
static char * sign_arrow_xpm[] = {
"16 16 5 1",
" 	c None",
".	c #393457",
"+	c #785F56",
"@	c #BD9B84",
"#	c #473B3B",
"     ....       ",
"     .+@@..     ",
"     .+@@@@..   ",
"    ...@@@@@@.. ",
" ...@@@@@@@@@@@.",
".+@@@@@@@@@@@@. ",
".+@@@@@+@@@@@.  ",
" .+@@@@+@@@@.   ",
" .+@@...+@@.    ",
"  ......+@.     ",
"      .#..      ",
"      .+#.      ",
"      .+#.      ",
"      .+#.      ",
"     .+++#.     ",
"    .+++++#.    "};
