/* XPM */
static char * log_wall_xpm[] = {
"16 16 3 1",
" 	c #393457",
".	c #785F56",
"+	c #473B3B",
"                ",
"................",
"+++++++++++++++.",
"................",
"+++++++++.+.....",
"................",
"................",
"                ",
"...........++++.",
"................",
"++++++++++++++..",
"................",
"                ",
"................",
"+++++++++++.....",
"................"};
